<?xml version="1.0" encoding="UTF-8" standalone="no"?>
<svg
   xmlns:dc="http://purl.org/dc/elements/1.1/"
   xmlns:cc="http://creativecommons.org/ns#"
   xmlns:rdf="http://www.w3.org/1999/02/22-rdf-syntax-ns#"
   xmlns:svg="http://www.w3.org/2000/svg"
   xmlns="http://www.w3.org/2000/svg"
   xmlns:sodipodi="http://sodipodi.sourceforge.net/DTD/sodipodi-0.dtd"
   xmlns:inkscape="http://www.inkscape.org/namespaces/inkscape"
   inkscape:version="1.0 (4035a4fb49, 2020-05-01)"
   sodipodi:docname="strawberry.svg"
   id="svg150"
   version="1.1"
   viewBox="0 0 100 100">
  <metadata
     id="metadata154">
    <rdf:RDF>
      <cc:Work
         rdf:about="">
        <dc:format>image/svg+xml</dc:format>
        <dc:type
           rdf:resource="http://purl.org/dc/dcmitype/StillImage" />
        <dc:title></dc:title>
      </cc:Work>
    </rdf:RDF>
  </metadata>
  <sodipodi:namedview
     inkscape:current-layer="outline"
     inkscape:window-maximized="1"
     inkscape:window-y="-8"
     inkscape:window-x="-8"
     inkscape:cy="43.099479"
     inkscape:cx="-44.793207"
     inkscape:zoom="2.3554255"
     showgrid="false"
     id="namedview152"
     inkscape:window-height="961"
     inkscape:window-width="1280"
     inkscape:pageshadow="2"
     inkscape:pageopacity="0"
     guidetolerance="10"
     gridtolerance="10"
     objecttolerance="10"
     borderopacity="1"
     bordercolor="#666666"
     pagecolor="#ffffff"
     inkscape:document-rotation="0"
     fit-margin-top="0"
     fit-margin-left="0"
     fit-margin-right="0"
     fit-margin-bottom="0" />
  <defs
     id="defs4">
    <style
       id="style2">.cls-1{fill:#262250;}.cls-2{fill:#e4304f;}.cls-3{fill:#31519f;}.cls-4{fill:#e9484c;}.cls-5{fill:#51ab5c;}</style>
  </defs>
  <g
     data-name="Ebene 2"
     id="Ebene_2"
     transform="translate(-246.18336,-29.512117)">
    <g
       id="outline">
      <path
         id="path80"
         d="m 324.96973,74.001311 a 21.2,21.2 0 0 0 -5.42,-12.83 c -5,-5.37 -12.77,-6.65 -19.74,-6.14 a 34,34 0 0 0 -9.22,1.6 20.87,20.87 0 0 0 -8.71,2.3 22.28,22.28 0 0 0 -8.53,8.13 c -4.25,6.72 -4.14,15.6 -1.69,22.93 a 61.31,61.31 0 0 0 11,19.299999 c 4.78,5.88 11.7,13.4 19.83,12.85 a 11.33,11.33 0 0 0 7.05,-2.77 c 2.31,-2 4.09,-4.71 5.85,-7.06 a 26.24,26.24 0 0 0 4.69,-9.68 c 1.41,-6.149999 2.94,-12.329999 4.1,-18.539999 a 35.67,35.67 0 0 0 0.79,-10.09 z"
         class="cls-4" />
      <path
         id="path82"
         d="m 323.39973,65.391311 a 25.6,25.6 0 0 0 -7.14,-7.91 27.47,27.47 0 0 0 -10,-5.1 19.6,19.6 0 0 0 -5.06,-0.57 1.74,1.74 0 0 0 -0.74,0.06 l -18.88,5.68 c -0.87,0.26 -1.75,0.49 -2.61,0.77 a 14.54,14.54 0 0 0 -7.61,6 c -4.14,6.3 -3.69,14.85 -2.38,21.94 2.66,14.389999 12.19,27.209999 26.13,32.319999 3,1.11 7.45,2.76 10.39,0.74 1.56,-1.08 2.57,-2.81 3.64,-4.32 1.17,-1.66 2.34,-3.32 3.48,-5 4.58,-6.75 8.77,-13.869999 11.17,-21.719999 2.22,-7.19 3.34,-15.95 -0.39,-22.89 z m -2,18.81 c -1.64,7.13 -5,13.69 -8.88,19.849999 -2.08,3.3 -4.32,6.5 -6.57,9.68 -0.76,1.07 -1.63,2.8 -3,3.16 -1.54,0.4 -3.66,-0.43 -5.12,-0.88 -12.8,-3.84 -21.88,-15.12 -25.03,-27.839999 a 45.14,45.14 0 0 1 -1.32,-10.61 21.73,21.73 0 0 1 1.94,-10 11.73,11.73 0 0 1 6.1,-5.83 c 0.84,-0.31 1.75,-0.52 2.61,-0.78 l 19,-5.72 c 6.6,-0.14 13,3.94 17.21,8.81 4.88,5.54 4.68,13.3 3.1,20.13 z"
         class="cls-1" />
      <path
         id="path84"
         d="m 286.61973,69.441311 a 1.7,1.7 0 0 0 1.67,-1.67 l 0.18,-3.69 a 1.66,1.66 0 0 0 -0.49,-1.18 1.68,1.68 0 0 0 -1.18,-0.49 1.7,1.7 0 0 0 -1.67,1.67 l -0.18,3.69 a 1.67,1.67 0 0 0 1.67,1.67 z"
         class="cls-1" />
      <path
         id="path86"
         d="m 286.02973,77.561311 c -0.3,-1.12 -0.59,-2.24 -0.89,-3.37 a 1.68,1.68 0 0 0 -2.06,-1.17 1.79,1.79 0 0 0 -1,0.77 1.81,1.81 0 0 0 -0.17,1.29 c 0.3,1.13 0.59,2.25 0.89,3.37 a 1.67,1.67 0 0 0 3.06,0.4 1.8,1.8 0 0 0 0.17,-1.29 z"
         class="cls-1" />
      <path
         id="path88"
         d="m 295.24973,72.731311 -0.93,-2.56 a 1.42,1.42 0 0 0 -0.3,-0.57 1.51,1.51 0 0 0 -1.1,-0.63 1.24,1.24 0 0 0 -0.66,0 1.65,1.65 0 0 0 -1,0.77 1.63,1.63 0 0 0 -0.17,1.29 c 0.31,0.84 0.62,1.68 0.94,2.52 a 1.21,1.21 0 0 0 0.3,0.57 1.3,1.3 0 0 0 0.47,0.43 1.26,1.26 0 0 0 0.62,0.2 1.28,1.28 0 0 0 0.67,0 1.71,1.71 0 0 0 1,-0.77 1.62,1.62 0 0 0 0.16,-1.25 z"
         class="cls-1" />
      <path
         id="path90"
         d="m 296.26973,77.241311 -0.34,0.27 a 1.6,1.6 0 0 0 -0.43,0.73 2.38,2.38 0 0 0 -0.15,0.52 4.32,4.32 0 0 0 -0.1,0.95 4.94,4.94 0 0 0 0.12,0.94 4.45,4.45 0 0 0 0.34,0.88 1.15,1.15 0 0 0 0.43,0.47 1.21,1.21 0 0 0 0.57,0.3 1.24,1.24 0 0 0 0.66,0 1.3,1.3 0 0 0 0.63,-0.2 1.66,1.66 0 0 0 0.76,-1 l 0.06,-0.44 a 1.63,1.63 0 0 0 -0.1,-0.55 2.79,2.79 0 0 1 -0.1,-0.39 0.81,0.81 0 0 1 0,-0.22 2.92,2.92 0 0 1 0.1,-0.4 1.24,1.24 0 0 0 0,-0.66 1.29,1.29 0 0 0 -0.19,-0.63 1.88,1.88 0 0 0 -1,-0.76 1.7,1.7 0 0 0 -1.26,0.19 z"
         class="cls-1" />
      <path
         id="path92"
         d="m 294.97973,65.991311 a 1.29,1.29 0 0 0 0.43,0.47 1.42,1.42 0 0 0 0.57,0.3 1.86,1.86 0 0 0 1.29,-0.17 1.71,1.71 0 0 0 0.77,-1 l 0.06,-0.45 a 1.62,1.62 0 0 0 -0.11,-0.54 2.79,2.79 0 0 1 -0.11,-0.43 v -0.22 a 1.82,1.82 0 0 1 0.11,-0.4 1.86,1.86 0 0 0 -0.17,-1.29 1.39,1.39 0 0 0 -0.43,-0.47 1.21,1.21 0 0 0 -0.57,-0.3 1.71,1.71 0 0 0 -1.29,0.17 l -0.34,0.26 a 1.68,1.68 0 0 0 -0.43,0.74 2.38,2.38 0 0 0 -0.15,0.52 4.23,4.23 0 0 0 -0.1,0.94 4.35,4.35 0 0 0 0.13,0.95 4.67,4.67 0 0 0 0.34,0.92 z"
         class="cls-1" />
      <path
         id="path94"
         d="m 299.71973,89.711311 -0.36,-2 a 1.21,1.21 0 0 0 -0.3,-0.57 1.27,1.27 0 0 0 -0.46,-0.43 1.3,1.3 0 0 0 -0.63,-0.2 1.24,1.24 0 0 0 -0.66,0 1.65,1.65 0 0 0 -1,0.77 l -0.17,0.4 a 1.68,1.68 0 0 0 0,0.89 l 0.36,2 a 1.21,1.21 0 0 0 0.3,0.57 1.19,1.19 0 0 0 0.46,0.43 1.3,1.3 0 0 0 0.63,0.2 1.24,1.24 0 0 0 0.66,0 1.65,1.65 0 0 0 1,-0.77 l 0.17,-0.4 a 1.68,1.68 0 0 0 0,-0.89 z"
         class="cls-1" />
      <path
         id="path96"
         d="m 298.38973,102.92131 a 1.42,1.42 0 0 0 -0.3,-0.57 1.51,1.51 0 0 0 -1.1,-0.63 1.24,1.24 0 0 0 -0.66,0 1.65,1.65 0 0 0 -1,0.77 l -0.17,0.4 a 1.68,1.68 0 0 0 0,0.89 l 0.82,2 a 1.42,1.42 0 0 0 0.3,0.57 1.29,1.29 0 0 0 0.47,0.43 1.86,1.86 0 0 0 1.29,0.17 1.65,1.65 0 0 0 1,-0.77 l 0.17,-0.4 a 1.68,1.68 0 0 0 0,-0.89 z"
         class="cls-1" />
      <path
         id="path98"
         d="m 291.87973,89.791311 a 1.86,1.86 0 0 0 -1,-0.77 1.71,1.71 0 0 0 -1.29,0.17 1.68,1.68 0 0 0 -0.77,1 l -0.06,0.44 a 1.72,1.72 0 0 0 0.23,0.85 l 1.23,2.6 a 1.86,1.86 0 0 0 1,0.77 1.68,1.68 0 0 0 1.28,-0.17 1.64,1.64 0 0 0 0.77,-1 l 0.06,-0.45 a 1.65,1.65 0 0 0 -0.22,-0.84 z"
         class="cls-1" />
      <path
         id="path100"
         d="m 305.87973,87.621311 0.06,2.74 a 1.75,1.75 0 0 0 0.49,1.19 1.68,1.68 0 0 0 2.37,0 1.77,1.77 0 0 0 0.49,-1.19 l -0.06,-2.74 a 1.74,1.74 0 0 0 -0.49,-1.18 1.68,1.68 0 0 0 -2.37,0 1.73,1.73 0 0 0 -0.49,1.18 z"
         class="cls-1" />
      <path
         id="path102"
         d="m 313.92973,76.641311 0.06,-0.44 a 1.57,1.57 0 0 0 -0.23,-0.85 c -0.45,-1.08 -0.91,-2.16 -1.37,-3.25 a 1.68,1.68 0 0 0 -3.06,0.4 l -0.06,0.45 a 1.66,1.66 0 0 0 0.23,0.84 c 0.46,1.08 0.92,2.17 1.37,3.25 a 1.67,1.67 0 0 0 2.29,0.6 1.64,1.64 0 0 0 0.77,-1 z"
         class="cls-1" />
      <path
         id="path104"
         d="m 312.20973,65.611311 0.89,1 a 2,2 0 0 0 1.18,0.49 1.22,1.22 0 0 0 0.65,-0.15 1.24,1.24 0 0 0 0.54,-0.34 l 0.26,-0.34 a 1.67,1.67 0 0 0 0.23,-0.85 l -0.06,-0.44 a 1.78,1.78 0 0 0 -0.43,-0.74 l -0.89,-1 a 1.81,1.81 0 0 0 -1.19,-0.49 1.18,1.18 0 0 0 -0.64,0.14 1.21,1.21 0 0 0 -0.54,0.35 l -0.26,0.33 a 1.72,1.72 0 0 0 -0.23,0.85 l 0.06,0.44 a 1.63,1.63 0 0 0 0.43,0.75 z"
         class="cls-1" />
      <path
         id="path106"
         d="m 303.44973,59.781311 a 5.55,5.55 0 0 0 0.32,0.71 5.41,5.41 0 0 0 0.46,0.61 1.33,1.33 0 0 0 0.26,0.27 1.19,1.19 0 0 0 0.54,0.34 1.44,1.44 0 0 0 1.28,0 1.19,1.19 0 0 0 0.54,-0.34 l 0.26,-0.34 a 1.57,1.57 0 0 0 0.23,-0.85 l -0.06,-0.44 a 1.68,1.68 0 0 0 -0.43,-0.74 1.66,1.66 0 0 1 -0.13,-0.14 1.19,1.19 0 0 1 -0.09,-0.15 1.54,1.54 0 0 1 -0.05,-0.17 1.42,1.42 0 0 0 -0.3,-0.57 1.29,1.29 0 0 0 -0.47,-0.43 1.2,1.2 0 0 0 -0.63,-0.2 1.24,1.24 0 0 0 -0.66,0 l -0.4,0.17 a 1.72,1.72 0 0 0 -0.6,0.6 c -0.06,0.13 -0.11,0.26 -0.17,0.4 a 1.68,1.68 0 0 0 0,0.89 2.3,2.3 0 0 0 0.1,0.38 z"
         class="cls-1" />
      <path
         id="path108"
         d="m 288.06973,81.071311 c -0.06,0.13 -0.12,0.26 -0.17,0.4 a 1.68,1.68 0 0 0 0,0.89 2.3,2.3 0 0 0 0.1,0.35 5,5 0 0 0 0.32,0.71 4.57,4.57 0 0 0 0.45,0.61 2.23,2.23 0 0 0 0.26,0.27 1.3,1.3 0 0 0 0.54,0.34 1.22,1.22 0 0 0 0.65,0.15 2,2 0 0 0 1.18,-0.49 l 0.26,-0.34 a 1.67,1.67 0 0 0 0.23,-0.85 l -0.01,-0.44 a 1.68,1.68 0 0 0 -0.43,-0.74 c -0.05,0 -0.09,-0.1 -0.14,-0.14 a 1.09,1.09 0 0 1 -0.08,-0.15 l -0.06,-0.17 a 1.21,1.21 0 0 0 -0.3,-0.57 1.19,1.19 0 0 0 -0.46,-0.43 1.2,1.2 0 0 0 -0.63,-0.2 1.24,1.24 0 0 0 -0.66,0 l -0.4,0.17 a 1.57,1.57 0 0 0 -0.65,0.63 z"
         class="cls-1" />
      <path
         id="path110"
         d="m 300.56973,70.431311 a 4.67,4.67 0 0 1 0.14,0.5 4.14,4.14 0 0 1 0,0.61 1.22,1.22 0 0 0 0.17,0.63 1.31,1.31 0 0 0 0.34,0.53 1.71,1.71 0 0 0 1.19,0.49 1.64,1.64 0 0 0 1.18,-0.49 l 0.26,-0.33 a 1.72,1.72 0 0 0 0.23,-0.85 5.28,5.28 0 0 0 -0.18,-1.72 6.8,6.8 0 0 0 -0.37,-1 4.08,4.08 0 0 0 -0.32,-0.58 1.75,1.75 0 0 0 -1,-0.77 1.86,1.86 0 0 0 -1.29,0.17 1.67,1.67 0 0 0 -0.6,2.29 4.45,4.45 0 0 1 0.25,0.52 z"
         class="cls-1" />
      <path
         id="path112"
         d="m 310.11973,97.991311 a 1.29,1.29 0 0 0 -0.43,-0.47 1.42,1.42 0 0 0 -0.57,-0.3 1.75,1.75 0 0 0 -1.29,0.17 c -0.11,0.09 -0.22,0.18 -0.34,0.26 a 1.78,1.78 0 0 0 -0.43,0.74 l -0.3,2.089999 a 1.86,1.86 0 0 0 0.17,1.29 1.86,1.86 0 0 0 1,0.77 1.66,1.66 0 0 0 1.29,-0.17 l 0.34,-0.26 a 1.72,1.72 0 0 0 0.43,-0.74 l 0.3,-2.089999 a 1.27,1.27 0 0 0 0,-0.67 1.17,1.17 0 0 0 -0.17,-0.62 z"
         class="cls-1" />
      <path
         id="path114"
         d="m 306.61973,105.05131 a 1.3,1.3 0 0 0 -0.54,-0.34 1.22,1.22 0 0 0 -0.65,-0.15 1.68,1.68 0 0 0 -1.18,0.49 l -0.26,0.34 a 1.66,1.66 0 0 0 -0.23,0.84 c 0,0.7 -0.07,1.39 -0.11,2.09 a 1.28,1.28 0 0 0 0.14,0.64 1.54,1.54 0 0 0 0.89,0.89 1.28,1.28 0 0 0 0.64,0.14 1.68,1.68 0 0 0 1.18,-0.49 l 0.27,-0.34 a 1.76,1.76 0 0 0 0.23,-0.84 c 0,-0.7 0.07,-1.39 0.11,-2.09 a 2,2 0 0 0 -0.49,-1.18 z"
         class="cls-1" />
      <path
         id="path116"
         d="m 289.48973,101.83131 a 7.94,7.94 0 0 1 -0.41,-1.5 1.64,1.64 0 0 0 -0.77,-0.999999 1.67,1.67 0 0 0 -2.29,0.6 l -0.16,0.399999 a 1.68,1.68 0 0 0 0,0.89 7.2,7.2 0 0 0 0.45,1.65 9.37,9.37 0 0 0 1,1.85 1.27,1.27 0 0 0 0.43,0.46 1.21,1.21 0 0 0 0.57,0.3 1.75,1.75 0 0 0 1.29,-0.16 1.71,1.71 0 0 0 0.77,-1 1.66,1.66 0 0 0 -0.17,-1.29 7.94,7.94 0 0 1 -0.71,-1.2 z"
         class="cls-1" />
      <path
         id="path118"
         d="m 280.78973,86.761311 -1.85,-3.07 a 1.7,1.7 0 0 0 -1,-0.76 1.76,1.76 0 0 0 -1.29,0.16 1.69,1.69 0 0 0 -0.76,1 1.75,1.75 0 0 0 0.16,1.29 l 1.83,3.07 a 1.75,1.75 0 0 0 1,0.77 1.71,1.71 0 0 0 1.29,-0.17 1.66,1.66 0 0 0 0.76,-1 1.75,1.75 0 0 0 -0.14,-1.29 z"
         class="cls-1" />
      <path
         id="path120"
         d="m 276.64973,76.511311 a 1.65,1.65 0 0 0 1,-0.77 l 0.17,-0.4 a 1.68,1.68 0 0 0 0,-0.89 3.77,3.77 0 0 1 -0.25,-0.87 3.64,3.64 0 0 1 0,-0.66 4.64,4.64 0 0 1 0.11,-0.51 1.66,1.66 0 0 0 -0.17,-1.29 1.68,1.68 0 0 0 -1,-0.77 1.64,1.64 0 0 0 -1.28,0.17 1.75,1.75 0 0 0 -0.77,1 5.44,5.44 0 0 0 -0.26,1.92 5.55,5.55 0 0 0 0.39,1.9 1.42,1.42 0 0 0 0.3,0.57 1.29,1.29 0 0 0 0.47,0.43 1.71,1.71 0 0 0 1.29,0.17 z"
         class="cls-1" />
      <path
         id="path122"
         d="m 316.25973,84.451311 c -0.16,-0.81 -0.32,-1.62 -0.47,-2.44 a 1.42,1.42 0 0 0 -0.3,-0.57 1.39,1.39 0 0 0 -0.47,-0.43 1.86,1.86 0 0 0 -1.29,-0.17 1.69,1.69 0 0 0 -1,0.77 c -0.06,0.14 -0.11,0.27 -0.17,0.4 a 1.68,1.68 0 0 0 0,0.89 c 0.16,0.81 0.31,1.63 0.47,2.44 a 1.86,1.86 0 0 0 0.77,1 1.86,1.86 0 0 0 1.29,0.17 1.71,1.71 0 0 0 1,-0.77 l 0.17,-0.4 a 1.68,1.68 0 0 0 0,-0.89 z"
         class="cls-1" />
      <path
         id="path124"
         d="m 304.09973,83.341311 a 1.17,1.17 0 0 0 0.62,0.2 1.27,1.27 0 0 0 0.67,0 1.71,1.71 0 0 0 1,-0.77 l 0.17,-0.4 a 1.68,1.68 0 0 0 0,-0.89 c -0.16,-0.81 -0.32,-1.62 -0.47,-2.44 a 1.56,1.56 0 0 0 -0.3,-0.57 1.39,1.39 0 0 0 -0.47,-0.43 1.25,1.25 0 0 0 -0.62,-0.19 1.27,1.27 0 0 0 -0.67,0 1.67,1.67 0 0 0 -1,0.76 c -0.06,0.14 -0.11,0.27 -0.17,0.4 a 1.68,1.68 0 0 0 0,0.89 c 0.16,0.82 0.31,1.63 0.47,2.44 a 1.86,1.86 0 0 0 0.77,1 z"
         class="cls-1" />
      <path
         id="path126"
         d="m 284.25973,91.921311 a 1.21,1.21 0 0 0 -0.3,-0.57 1.3,1.3 0 0 0 -0.47,-0.43 1.86,1.86 0 0 0 -1.29,-0.17 1.71,1.71 0 0 0 -1,0.77 l -0.17,0.4 a 1.68,1.68 0 0 0 0,0.89 l 0.47,2.44 a 1.42,1.42 0 0 0 0.3,0.57 1.39,1.39 0 0 0 0.47,0.43 1.3,1.3 0 0 0 0.63,0.2 1.24,1.24 0 0 0 0.66,0 1.65,1.65 0 0 0 1,-0.77 l 0.17,-0.4 a 1.68,1.68 0 0 0 0,-0.89 c -0.16,-0.84 -0.31,-1.66 -0.47,-2.47 z"
         class="cls-1" />
      <path
         id="path128"
         d="m 303.00973,95.801311 a 1.86,1.86 0 0 0 -0.77,-1 1.17,1.17 0 0 0 -0.62,-0.2 1.27,1.27 0 0 0 -0.67,0 1.71,1.71 0 0 0 -1,0.77 l -0.17,0.4 a 1.68,1.68 0 0 0 0,0.89 c 0.16,0.81 0.32,1.62 0.47,2.44 a 1.31,1.31 0 0 0 0.3,0.57 1.39,1.39 0 0 0 0.47,0.429999 1.25,1.25 0 0 0 0.62,0.19 1.38,1.38 0 0 0 0.67,0 1.73,1.73 0 0 0 1,-0.769999 c 0.06,-0.14 0.11,-0.27 0.17,-0.4 a 1.68,1.68 0 0 0 0,-0.89 c -0.16,-0.81 -0.31,-1.62 -0.47,-2.43 z"
         class="cls-1" />
      <path
         id="path130"
         d="m 315.47973,90.171311 a 1.71,1.71 0 0 0 -1.19,-0.49 1.68,1.68 0 0 0 -1.18,0.49 1.64,1.64 0 0 0 -0.49,1.18 13.46,13.46 0 0 1 -0.06,2.54 c 0,0.17 -0.05,0.34 -0.09,0.52 a 1.84,1.84 0 0 0 0.17,1.28 1.71,1.71 0 0 0 1,0.77 1.66,1.66 0 0 0 1.29,-0.17 1.62,1.62 0 0 0 0.77,-1 14.87,14.87 0 0 0 0.27,-3.94 1.82,1.82 0 0 0 -0.49,-1.18 z"
         class="cls-1" />
      <path
         id="path132"
         d="m 289.37973,56.321311 c -0.94,-2.11 -2.09,-4.28 -4.07,-5.47 a 12.47,12.47 0 0 0 -5.43,-1.32 l -9.45,-0.82 a 0.91,0.91 0 0 0 -0.65,0.1 c -0.26,0.2 -0.23,0.6 -0.16,0.92 0.84,3.71 4.05,6.59 7.68,7.72 a 18.54,18.54 0 0 0 11.21,-0.52"
         class="cls-5" />
      <path
         id="path134"
         d="m 289.87973,56.541311 c -0.86,-3.77 1.54,-7.58 4.52,-10 2.98,-2.42 6.6,-4 9.57,-6.51 a 17.35,17.35 0 0 1 -12.83,16.79"
         class="cls-5" />
      <path
         id="path136"
         d="m 297.39973,53.271311 c 4.19,-2.29 9.21,-3.38 13.4,-5.68 a 1.41,1.41 0 0 1 0.94,-0.25 1,1 0 0 1 0.61,1.09 2.84,2.84 0 0 1 -0.62,1.19 38.83,38.83 0 0 1 -4.27,5 12.89,12.89 0 0 1 -5.67,3.25 l -5,-0.73 -4.77,-1.33"
         class="cls-5" />
      <path
         id="path138"
         d="m 274.39973,56.351311 a 13,13 0 0 1 -8.4,1.17 0.25,0.25 0 0 0 -0.24,0.42 17.33,17.33 0 0 0 11.4,5.13 0.24,0.24 0 0 0 0.19,-0.08 l 6.37,-6.31"
         class="cls-5" />
      <path
         id="path140"
         d="m 289.99973,54.281311 c -1.39,-3.06 -3.24,-5.83 -6.58,-6.92 a 24.72,24.72 0 0 0 -5.56,-0.81 l -6.1,-0.53 c -1.67,-0.14 -4.14,-0.68 -4.64,1.56 -0.32,1.46 0.6,3.31 1.34,4.52 a 13.43,13.43 0 0 0 7.15,5.62 c 4,1.41 8.53,0.92 12.51,-0.37 a 1.61,1.61 0 0 0 0.87,-0.63 1.56,1.56 0 0 0 0.41,-0.15 1.72,1.72 0 0 0 0.6,-2.29 z m -14,0 a 10.46,10.46 0 0 1 -3.68,-2.55 9.46,9.46 0 0 1 -1.23,-1.72 8.16,8.16 0 0 1 -0.36,-0.8 l 1.19,0.14 3.15,0.27 c 1.82,0.16 3.67,0.25 5.48,0.5 a 6.7,6.7 0 0 1 4.1,1.79 10.25,10.25 0 0 1 1.66,2.43 c -3.32,1 -6.99,1.34 -10.27,-0.02 z"
         class="cls-1" />
      <path
         id="path142"
         d="m 301.92973,37.611311 c -3.26,2.68 -7.27,4.31 -10.37,7.22 -3.1,2.91 -5,6.8 -4.15,11 a 1.68,1.68 0 0 0 1.94,1.19 1.53,1.53 0 0 0 1.38,0.24 19.31,19.31 0 0 0 14.06,-18.41 1.7,1.7 0 0 0 -2.86,-1.24 z m -11.41,16.15 c 0,-2.88 2.08,-5.51 4.21,-7.26 a 59.41,59.41 0 0 1 6.29,-4.21 15.91,15.91 0 0 1 -10.5,11.47 z"
         class="cls-1" />
      <path
         id="path144"
         d="m 312.33973,45.071311 c -1.62,-1.47 -3.66,0.16 -5.22,0.89 -3.87,1.83 -8,3.15 -11.73,5.19 -1.9,1 -0.21,3.91 1.68,2.89 a 75.06,75.06 0 0 1 7,-3.16 c 1.16,-0.48 2.33,-1 3.48,-1.47 0.24,-0.1 0.47,-0.22 0.71,-0.33 -0.2,0.26 -0.39,0.52 -0.6,0.77 a 22.7,22.7 0 0 1 -2.93,3 c -1.21,1 -2.92,2.14 -4.32,2.17 a 38,38 0 0 1 -11.15,-1.06 c -2.08,-0.59 -3,2.64 -0.89,3.23 a 37.48,37.48 0 0 0 9.14,1.16 12.58,12.58 0 0 0 6.16,-0.89 c 3.52,-1.61 6,-4.72 8.27,-7.73 1.07,-1.34 1.94,-3.25 0.4,-4.66 z"
         class="cls-1" />
      <path
         id="path146"
         d="m 286.39973,55.311311 a 18.22,18.22 0 0 1 -5.52,3.75 34.8,34.8 0 0 1 -4.26,1 c -2.54,0.62 -5.19,-0.42 -7.46,-2 a 15.27,15.27 0 0 0 5.26,-1.53 c 1.93,-1 0.24,-3.84 -1.69,-2.89 a 11.42,11.42 0 0 1 -7.9,0.82 1.69,1.69 0 0 0 -1.63,2.8 c 3.24,3.59 8.83,7.35 13.91,6.11 a 40.35,40.35 0 0 0 4.77,-1.12 22.34,22.34 0 0 0 6.91,-4.58 c 1.58,-1.44 -0.79,-3.81 -2.39,-2.36 z"
         class="cls-1" />
    </g>
  </g>
</svg>
